<?xml version="1.0" standalone="no"?>
<!DOCTYPE svg PUBLIC "-//W3C//DTD SVG 20010904//EN"
 "http://www.w3.org/TR/2001/REC-SVG-20010904/DTD/svg10.dtd">
<svg version="1.0" xmlns="http://www.w3.org/2000/svg"
 width="16.000000pt" height="16.000000pt" viewBox="0 0 16.000000 16.000000"
 preserveAspectRatio="xMidYMid meet">
<metadata>
Created by potrace 1.11, written by Peter Selinger 2001-2013
</metadata>
<g transform="translate(0.000000,16.000000) scale(0.006154,-0.006154)"
fill="#000000" stroke="none">
<path d="M846 2083 c-1 -1 -40 -5 -86 -8 -80 -6 -212 -29 -231 -41 -15 -9 -11
-22 21 -66 35 -49 37 -68 10 -151 -24 -73 -174 -378 -290 -592 -87 -160 -179
-347 -210 -426 l-19 -48 32 -19 c42 -26 88 -35 118 -23 19 7 32 27 53 83 15
40 53 133 84 207 51 121 60 136 87 144 34 10 316 18 356 10 l27 -5 4 -141 c4
-115 8 -150 25 -187 52 -113 148 -149 298 -109 57 16 174 75 214 109 l34 29
-19 36 c-10 19 -19 35 -20 35 -1 0 -32 -11 -68 -25 -37 -14 -72 -22 -78 -19
-5 4 -17 23 -25 42 -29 70 -34 114 -38 362 -9 527 -21 691 -54 760 -17 38 -14
37 -154 42 -38 2 -70 2 -71 1z m-66 -207 c15 -40 24 -186 24 -396 l1 -195
-173 -3 -173 -2 99 192 c90 175 143 287 186 391 18 44 23 46 36 13z"/>
<path d="M2004 2069 c-202 -41 -407 -212 -501 -419 -26 -56 -61 -172 -68 -220
-2 -19 -5 -80 -5 -135 -2 -202 79 -349 234 -425 106 -52 231 -60 341 -21 33
12 60 21 61 21 2 0 -26 -103 -29 -106 -3 -3 -84 -21 -167 -38 -14 -2 -54 -14
-90 -26 -179 -59 -262 -160 -230 -280 21 -77 119 -130 238 -130 205 0 358 112
477 350 34 67 117 301 129 361 2 13 16 80 30 149 14 69 28 143 31 165 3 22 8
46 10 53 2 6 1 12 -3 13 -4 0 -18 2 -32 5 -74 13 -81 12 -87 -4 -49 -154 -137
-278 -240 -339 -58 -34 -146 -42 -194 -18 -51 26 -95 81 -116 144 -19 59 -25
252 -11 338 32 191 115 350 217 415 54 34 135 39 191 10 l35 -17 1 -105 1
-104 39 -17 c64 -28 235 -42 255 -22 13 13 28 78 29 122 1 141 -141 264 -330
287 -92 11 -134 9 -216 -7z m-11 -1467 c-10 -39 -81 -118 -133 -149 -57 -35
-101 -41 -144 -21 -87 39 0 128 167 169 97 24 116 24 110 1z"/>
</g>
</svg>
